<svg width="160" height="24" viewBox="0 0 160 24" fill="none" xmlns="http://www.w3.org/2000/svg">
<path d="M17.6475 15.8955C17.4814 18.1904 16.6318 19.9971 15.0986 21.3154C13.5752 22.6338 11.5635 23.293 9.06348 23.293C6.3291 23.293 4.17578 22.375 2.60352 20.5391C1.04102 18.6934 0.259766 16.1641 0.259766 12.9512V11.6475C0.259766 9.59668 0.621094 7.79004 1.34375 6.22754C2.06641 4.66504 3.09668 3.46875 4.43457 2.63867C5.78223 1.79883 7.34473 1.37891 9.12207 1.37891C11.583 1.37891 13.5654 2.03809 15.0693 3.35645C16.5732 4.6748 17.4424 6.52539 17.6768 8.9082H13.2822C13.1748 7.53125 12.7891 6.53516 12.125 5.91992C11.4707 5.29492 10.4697 4.98242 9.12207 4.98242C7.65723 4.98242 6.55859 5.50977 5.82617 6.56445C5.10352 7.60937 4.73242 9.23535 4.71289 11.4424V13.0537C4.71289 15.3584 5.05957 17.043 5.75293 18.1074C6.45605 19.1719 7.55957 19.7041 9.06348 19.7041C10.4209 19.7041 11.4316 19.3965 12.0957 18.7812C12.7695 18.1562 13.1553 17.1943 13.2529 15.8955H17.6475ZM24.7227 23H20.4746V0.5H24.7227V23ZM35.5186 23.293C33.1943 23.293 31.2998 22.5801 29.835 21.1543C28.3799 19.7285 27.6523 17.8291 27.6523 15.4561V15.0459C27.6523 13.4541 27.96 12.0332 28.5752 10.7832C29.1904 9.52344 30.0596 8.55664 31.1826 7.88281C32.3154 7.19922 33.6045 6.85742 35.0498 6.85742C37.2178 6.85742 38.9219 7.54102 40.1621 8.9082C41.4121 10.2754 42.0371 12.2139 42.0371 14.7236V16.4521H31.9443C32.0811 17.4873 32.4912 18.3174 33.1748 18.9424C33.8682 19.5674 34.7422 19.8799 35.7969 19.8799C37.4277 19.8799 38.7021 19.2891 39.6201 18.1074L41.7002 20.4365C41.0654 21.335 40.2061 22.0381 39.1221 22.5459C38.0381 23.0439 36.8369 23.293 35.5186 23.293ZM35.0352 10.2852C34.1953 10.2852 33.5117 10.5684 32.9844 11.1348C32.4668 11.7012 32.1348 12.5117 31.9883 13.5664H37.877V13.2295C37.8574 12.292 37.6035 11.5693 37.1152 11.0615C36.627 10.5439 35.9336 10.2852 35.0352 10.2852ZM53.6387 23C53.4434 22.6191 53.3018 22.1455 53.2139 21.5791C52.1885 22.7217 50.8555 23.293 49.2148 23.293C47.6621 23.293 46.373 22.8438 45.3477 21.9453C44.332 21.0469 43.8242 19.9141 43.8242 18.5469C43.8242 16.8672 44.4443 15.5781 45.6846 14.6797C46.9346 13.7812 48.7363 13.3271 51.0898 13.3174H53.0381V12.4092C53.0381 11.6768 52.8477 11.0908 52.4668 10.6514C52.0957 10.2119 51.5049 9.99219 50.6943 9.99219C49.9814 9.99219 49.4199 10.1631 49.0098 10.5049C48.6094 10.8467 48.4092 11.3154 48.4092 11.9111H44.1758C44.1758 10.9932 44.459 10.1436 45.0254 9.3623C45.5918 8.58105 46.3926 7.9707 47.4277 7.53125C48.4629 7.08203 49.625 6.85742 50.9141 6.85742C52.8672 6.85742 54.415 7.35059 55.5576 8.33691C56.71 9.31348 57.2861 10.6904 57.2861 12.4678V19.3379C57.2959 20.8418 57.5059 21.9795 57.916 22.751V23H53.6387ZM50.1377 20.0557C50.7627 20.0557 51.3389 19.9189 51.8662 19.6455C52.3936 19.3623 52.7842 18.9863 53.0381 18.5176V15.793H51.4561C49.3369 15.793 48.209 16.5254 48.0723 17.9902L48.0576 18.2393C48.0576 18.7666 48.2432 19.2012 48.6143 19.543C48.9854 19.8848 49.4932 20.0557 50.1377 20.0557ZM69.4443 11.1201C68.8682 11.042 68.3604 11.0029 67.9209 11.0029C66.3193 11.0029 65.2695 11.5449 64.7715 12.6289V23H60.5381V7.15039H64.5371L64.6543 9.04004C65.5039 7.58496 66.6807 6.85742 68.1846 6.85742C68.6533 6.85742 69.0928 6.9209 69.5029 7.04785L69.4443 11.1201ZM131.803 12.8193C131.803 14.9189 131.432 16.7598 130.689 18.3418C129.947 19.9238 128.883 21.1445 127.496 22.0039C126.119 22.8633 124.537 23.293 122.75 23.293C120.982 23.293 119.405 22.8682 118.019 22.0186C116.632 21.1689 115.558 19.958 114.796 18.3857C114.034 16.8037 113.648 14.9873 113.639 12.9365V11.8818C113.639 9.78223 114.015 7.93652 114.767 6.34473C115.528 4.74316 116.598 3.51758 117.975 2.66797C119.361 1.80859 120.943 1.37891 122.721 1.37891C124.498 1.37891 126.075 1.80859 127.452 2.66797C128.839 3.51758 129.908 4.74316 130.66 6.34473C131.422 7.93652 131.803 9.77734 131.803 11.8672V12.8193ZM127.35 11.8525C127.35 9.61621 126.949 7.91699 126.148 6.75488C125.348 5.59277 124.205 5.01172 122.721 5.01172C121.246 5.01172 120.108 5.58789 119.308 6.74023C118.507 7.88281 118.102 9.5625 118.092 11.7793V12.8193C118.092 14.9971 118.492 16.6865 119.293 17.8877C120.094 19.0889 121.246 19.6895 122.75 19.6895C124.225 19.6895 125.357 19.1133 126.148 17.9609C126.939 16.7988 127.34 15.1094 127.35 12.8926V11.8525ZM144.21 21.3887C143.165 22.6582 141.72 23.293 139.874 23.293C138.175 23.293 136.876 22.8047 135.978 21.8281C135.089 20.8516 134.635 19.4209 134.615 17.5361V7.15039H138.849V17.3896C138.849 19.04 139.601 19.8652 141.104 19.8652C142.54 19.8652 143.526 19.3672 144.063 18.3711V7.15039H148.312V23H144.327L144.21 21.3887ZM156.573 3.25391V7.15039H159.283V10.2559H156.573V18.166C156.573 18.752 156.686 19.1719 156.91 19.4258C157.135 19.6797 157.564 19.8066 158.199 19.8066C158.668 19.8066 159.083 19.7725 159.444 19.7041V22.9121C158.614 23.166 157.76 23.293 156.881 23.293C153.912 23.293 152.398 21.7939 152.34 18.7959V10.2559H150.025V7.15039H152.34V3.25391H156.573Z" fill="#0080A8"/>
<path d="M77.5156 1.67188L82.9941 17.1406L88.4434 1.67188H94.2148V23H89.8057V17.1699L90.2451 7.10645L84.4883 23H81.4707L75.7285 7.12109L76.168 17.1699V23H71.7734V1.67188H77.5156ZM105.069 23.293C102.745 23.293 100.851 22.5801 99.3857 21.1543C97.9307 19.7285 97.2031 17.8291 97.2031 15.4561V15.0459C97.2031 13.4541 97.5107 12.0332 98.126 10.7832C98.7412 9.52344 99.6104 8.55664 100.733 7.88281C101.866 7.19922 103.155 6.85742 104.601 6.85742C106.769 6.85742 108.473 7.54102 109.713 8.9082C110.963 10.2754 111.588 12.2139 111.588 14.7236V16.4521H101.495C101.632 17.4873 102.042 18.3174 102.726 18.9424C103.419 19.5674 104.293 19.8799 105.348 19.8799C106.979 19.8799 108.253 19.2891 109.171 18.1074L111.251 20.4365C110.616 21.335 109.757 22.0381 108.673 22.5459C107.589 23.0439 106.388 23.293 105.069 23.293ZM104.586 10.2852C103.746 10.2852 103.062 10.5684 102.535 11.1348C102.018 11.7012 101.686 12.5117 101.539 13.5664H107.428V13.2295C107.408 12.292 107.154 11.5693 106.666 11.0615C106.178 10.5439 105.484 10.2852 104.586 10.2852Z" fill="black"/>
</svg>
